<svg xmlns="http://www.w3.org/2000/svg" viewBox="0 0 400 600" role="img" aria-label="Persuasion by Jane Austen">
  <defs>
    <linearGradient id="bg" x1="0" y1="0" x2="0" y2="1">
      <stop offset="0" stop-color="#FDFBF7"/>
      <stop offset="1" stop-color="#F6F1E7"/>
    </linearGradient>
  </defs>
  <rect width="400" height="600" fill="url(#bg)"/>
  <rect x="20" y="20" width="360" height="560" fill="none" stroke="#C57B57" stroke-width="2"/>
  <rect x="30" y="30" width="340" height="540" fill="none" stroke="#D4A373" stroke-width="1"/>

  <g transform="translate(200 166)" stroke="#C9A66B" fill="none" stroke-linecap="round" stroke-linejoin="round">
    <circle cx="0" cy="-33" r="5.5" stroke-width="1.8"/>
    <path d="M0 -27 v52" stroke-width="1.9"/>
    <path d="M-13 -19 h26" stroke-width="1.7"/>
    <path d="M0 25 q -24 -1 -25 -25 M0 25 q 24 -1 25 -25" stroke-width="1.8"/>
    <path d="M-25 0 l-6 -5 l0 11 z" stroke-width="1.5"/>
    <path d="M25 0 l6 -5 l0 11 z" stroke-width="1.5"/>
    <path d="M-10 16 q 10 7 20 0" stroke-width="1.3" opacity="0.65"/>
    <path d="M-54 34 q 40 -9 56 -3 t 56 0" stroke-width="1.1" opacity="0.4"/>
  </g>

  <text x="200" y="336" text-anchor="middle" font-family="Georgia, 'Times New Roman', serif" font-size="43" fill="#2C2C2C" letter-spacing="2">Persuasion</text>

  <line x1="150" y1="374" x2="250" y2="374" stroke="#C57B57" stroke-width="1"/>

  <text x="200" y="407" text-anchor="middle" font-family="Georgia, 'Times New Roman', serif" font-size="15" font-style="italic" fill="#C57B57">Eight years apart</text>

  <text x="200" y="452" text-anchor="middle" font-family="Georgia, 'Times New Roman', serif" font-size="16" fill="#C57B57" letter-spacing="4">JANE AUSTEN</text>
  <text x="200" y="474" text-anchor="middle" font-family="Georgia, 'Times New Roman', serif" font-size="11" fill="#9A8F80" letter-spacing="2">1817</text>

  <text x="200" y="566" text-anchor="middle" font-family="Georgia, 'Times New Roman', serif" font-size="10.5" fill="#B7C296" letter-spacing="3">SEOJAE STORY &#183; CLASSICS</text>
</svg>
