<svg xmlns="http://www.w3.org/2000/svg" viewBox="0 0 400 600" role="img" aria-label="The Reef, by Edith Wharton">
  <defs>
    <linearGradient id="bg" x1="0" y1="0" x2="0" y2="1">
      <stop offset="0" stop-color="#FDFBF7"/>
      <stop offset="1" stop-color="#F6F1E7"/>
    </linearGradient>
  </defs>
  <rect width="400" height="600" fill="url(#bg)"/>
  <rect x="20" y="20" width="360" height="560" fill="none" stroke="#C57B57" stroke-width="2"/>
  <rect x="30" y="30" width="340" height="540" fill="none" stroke="#D4A373" stroke-width="1"/>

  <g transform="translate(200 178)" stroke="#A9663F" stroke-width="1.4" fill="none" stroke-linecap="round" stroke-linejoin="round">
    <path d="M0 -40 L0 22" />
    <path d="M0 -40 Q14 -36 12 -24 Q-2 -30 0 -40 Z" fill="#D4A373" fill-opacity="0.5"/>
    <path d="M-30 22 Q0 36 30 22 Q22 30 0 34 Q-22 30 -30 22 Z" fill="#EBD3B8" fill-opacity="0.55"/>
    <path d="M-22 6 Q0 -2 22 6" stroke-width="1.1" opacity="0.75"/>
  </g>

  <text x="200" y="290" text-anchor="middle" font-family="Georgia, 'Times New Roman', serif" font-size="27" fill="#2C2C2C" letter-spacing="1.5">The Reef</text>

  <line x1="150" y1="316" x2="250" y2="316" stroke="#C57B57" stroke-width="1"/>

  <text x="200" y="346" text-anchor="middle" font-family="Georgia, 'Times New Roman', serif" font-size="13.5" font-style="italic" fill="#C57B57">A windy pier, a chance meeting</text>

  <text x="200" y="452" text-anchor="middle" font-family="Georgia, 'Times New Roman', serif" font-size="13" fill="#C57B57" letter-spacing="2.5">EDITH WHARTON</text>
  <text x="200" y="474" text-anchor="middle" font-family="Georgia, 'Times New Roman', serif" font-size="10.5" fill="#9A8F80" letter-spacing="2">FIRST PUBLISHED 1912</text>

  <text x="200" y="566" text-anchor="middle" font-family="Georgia, 'Times New Roman', serif" font-size="10.5" fill="#B7C296" letter-spacing="3">SEOJAE STORY &#183; CLASSICS</text>
</svg>
